<?xml version="1.0" encoding="utf-8"?><svg xmlns="http://www.w3.org/2000/svg" xmlns:xlink="http://www.w3.org/1999/xlink"><symbol viewBox="0 0 448 512" id="angle-down" xmlns="http://www.w3.org/2000/svg"><path d="M201.4 374.6c12.5 12.5 32.8 12.5 45.3 0l160-160c12.5-12.5 12.5-32.8 0-45.3s-32.8-12.5-45.3 0L224 306.7 86.6 169.4c-12.5-12.5-32.8-12.5-45.3 0s-12.5 32.8 0 45.3l160 160z"/></symbol><symbol viewBox="0 0 448 512" id="bars" xmlns="http://www.w3.org/2000/svg"><path d="M0 96c0-17.7 14.3-32 32-32h384c17.7 0 32 14.3 32 32s-14.3 32-32 32H32c-17.7 0-32-14.3-32-32zm0 160c0-17.7 14.3-32 32-32h384c17.7 0 32 14.3 32 32s-14.3 32-32 32H32c-17.7 0-32-14.3-32-32zm448 160c0 17.7-14.3 32-32 32H32c-17.7 0-32-14.3-32-32s14.3-32 32-32h384c17.7 0 32 14.3 32 32z"/></symbol><symbol viewBox="0 0 448 512" id="calendar-check" xmlns="http://www.w3.org/2000/svg"><path d="M128 0c17.7 0 32 14.3 32 32v32h128V32c0-17.7 14.3-32 32-32s32 14.3 32 32v32h48c26.5 0 48 21.5 48 48v48H0v-48c0-26.5 21.5-48 48-48h48V32c0-17.7 14.3-32 32-32zM0 192h448v272c0 26.5-21.5 48-48 48H48c-26.5 0-48-21.5-48-48V192zm329 113c9.4-9.4 9.4-24.6 0-33.9s-24.6-9.4-33.9 0l-95 95-47-47c-9.4-9.4-24.6-9.4-33.9 0s-9.4 24.6 0 33.9l64 64c9.4 9.4 24.6 9.4 33.9 0L329 305z"/></symbol><symbol viewBox="0 0 448 512" id="chart-simple" xmlns="http://www.w3.org/2000/svg"><path d="M160 80c0-26.5 21.5-48 48-48h32c26.5 0 48 21.5 48 48v352c0 26.5-21.5 48-48 48h-32c-26.5 0-48-21.5-48-48V80zM0 272c0-26.5 21.5-48 48-48h32c26.5 0 48 21.5 48 48v160c0 26.5-21.5 48-48 48H48c-26.5 0-48-21.5-48-48V272zM368 96h32c26.5 0 48 21.5 48 48v288c0 26.5-21.5 48-48 48h-32c-26.5 0-48-21.5-48-48V144c0-26.5 21.5-48 48-48z"/></symbol><symbol viewBox="0 0 512 512" id="circle-check" xmlns="http://www.w3.org/2000/svg"><path d="M256 48a208 208 0 1 1 0 416 208 208 0 1 1 0-416zm0 464a256 256 0 1 0 0-512 256 256 0 1 0 0 512zm113-303c9.4-9.4 9.4-24.6 0-33.9s-24.6-9.4-33.9 0l-111 111-47-47c-9.4-9.4-24.6-9.4-33.9 0s-9.4 24.6 0 33.9l64 64c9.4 9.4 24.6 9.4 33.9 0L369 209z"/></symbol><symbol viewBox="0 0 512 512" id="circle-plus" xmlns="http://www.w3.org/2000/svg"><path d="M464 256c0-114.875-93.125-208-208-208S48 141.125 48 256s93.125 208 208 208 208-93.125 208-208zM0 256C0 114.615 114.615 0 256 0s256 114.615 256 256-114.615 256-256 256S0 397.385 0 256Z"/><path d="M232 344v-64h-64c-13.3 0-24-10.7-24-24s10.7-24 24-24h64v-64c0-13.3 10.7-24 24-24s24 10.7 24 24v64h64c13.3 0 24 10.7 24 24s-10.7 24-24 24h-64v64c0 13.3-10.7 24-24 24s-24-10.7-24-24z"/></symbol><symbol viewBox="0 0 640 640" id="clone" xmlns="http://www.w3.org/2000/svg"><path d="M352 512H128V288h48v-64h-48c-35.3 0-64 28.7-64 64v224c0 35.3 28.7 64 64 64h224c35.3 0 64-28.7 64-64v-48h-64v48zm-64-96h224c35.3 0 64-28.7 64-64V128c0-35.3-28.7-64-64-64H288c-35.3 0-64 28.7-64 64v224c0 35.3 28.7 64 64 64z"/></symbol><symbol viewBox="0 0 512 512" id="comment" xmlns="http://www.w3.org/2000/svg"><path d="M512 240c0 114.9-114.6 208-256 208-37.1 0-72.3-6.4-104.1-17.9-11.9 8.7-31.3 20.6-54.3 30.6C73.6 471.1 44.7 480 16 480c-6.5 0-12.3-3.9-14.8-9.9s-1.1-12.8 3.4-17.4l.3-.3c.3-.3.7-.7 1.3-1.4 1.1-1.2 2.8-3.1 4.9-5.7 4.1-5 9.6-12.4 15.2-21.6 10-16.6 19.5-38.4 21.4-62.9C17.7 326.8 0 285.1 0 240 0 125.1 114.6 32 256 32s256 93.1 256 208z"/></symbol><symbol viewBox="0 0 640 640" id="file-csv" xmlns="http://www.w3.org/2000/svg"><path d="M128 64c-35.3 0-64 28.7-64 64v384c0 35.3 28.7 64 64 64h80V464c0-35.3 28.7-64 64-64h176V234.5c0-17-6.7-33.3-18.7-45.3L322.7 82.7c-12-12-28.2-18.7-45.2-18.7H128zm261.5 176H296c-13.3 0-24-10.7-24-24v-93.5L389.5 240zM296 444c-24.3 0-44 19.7-44 44v80c0 24.3 19.7 44 44 44h16c24.3 0 44-19.7 44-44v-8c0-11-9-20-20-20s-20 9-20 20v8c0 2.2-1.8 4-4 4h-16c-2.2 0-4-1.8-4-4v-80c0-2.2 1.8-4 4-4h16c2.2 0 4 1.8 4 4v8c0 11 9 20 20 20s20-9 20-20v-8c0-24.3-19.7-44-44-44h-16zm136 0c-28.7 0-52 23.3-52 52s23.3 52 52 52c6.6 0 12 5.4 12 12s-5.4 12-12 12h-32c-11 0-20 9-20 20s9 20 20 20h32c28.7 0 52-23.3 52-52s-23.3-52-52-52c-6.6 0-12-5.4-12-12s5.4-12 12-12h24c11 0 20-9 20-20s-9-20-20-20h-24zm96 0c-11 0-20 9-20 20v31.6c0 35.5 10.5 70.3 30.2 99.8l5.1 7.7c3.7 5.6 10 8.9 16.6 8.9 6.6 0 12.9-3.3 16.6-8.9l5.1-7.7c19.7-29.6 30.2-64.3 30.2-99.8V464c0-11-9-20-20-20s-20 9-20 20v31.6c0 19.6-4.1 38.9-12 56.7-7.9-17.8-12-37.1-12-56.7V464c0-11-9-20-20-20z"/></symbol><symbol viewBox="0 0 640 640" id="gear" xmlns="http://www.w3.org/2000/svg"><path d="M259.1 73.5c3-14.8 16.1-25.5 31.3-25.5h59.8c15.2 0 28.3 10.7 31.3 25.5l14.5 70c14.1 6 27.3 13.7 39.3 22.8l67.8-22.5c14.4-4.8 30.2 1.2 37.8 14.4l29.9 51.8c7.6 13.2 4.9 29.8-6.5 39.9L511 297.3c.9 7.4 1.3 15 1.3 22.7 0 7.7-.5 15.3-1.3 22.7l53.4 47.5c11.4 10.1 14 26.8 6.5 39.9L541 481.9c-7.6 13.1-23.4 19.2-37.8 14.4l-67.8-22.5c-12.1 9.1-25.3 16.7-39.3 22.8l-14.4 69.9c-3.1 14.9-16.2 25.5-31.3 25.5h-59.8c-15.2 0-28.3-10.7-31.3-25.5l-14.4-69.9c-14.1-6-27.2-13.7-39.3-22.8l-68.1 22.5c-14.4 4.8-30.2-1.2-37.8-14.4l-29.9-51.8c-7.6-13.2-4.9-29.8 6.5-39.9l53.4-47.5c-.9-7.4-1.3-15-1.3-22.7 0-7.7.5-15.3 1.3-22.7l-53.4-47.5c-11.4-10.1-14-26.8-6.5-39.9l29.9-51.8c7.6-13.2 23.4-19.2 37.8-14.4l67.8 22.5c12.1-9.1 25.3-16.7 39.3-22.8l14.5-69.9zM320.3 400c44.2-.2 79.9-36.1 79.7-80.3-.2-44.2-36.1-79.9-80.3-79.7-44.2.2-79.9 36.1-79.7 80.3.2 44.2 36.1 79.9 80.3 79.7z"/></symbol><symbol viewBox="0 0 384 512" id="lightbulb" xmlns="http://www.w3.org/2000/svg"><path d="M297.2 248.9c14.4-20.6 22.8-45.7 22.8-72.9 0-70.7-57.3-128-128-128S64 105.3 64 176c0 27.2 8.4 52.3 22.8 72.9 3.7 5.3 8.1 11.3 12.8 17.7 12.9 17.7 28.3 38.9 39.8 59.8 10.4 19 15.7 38.8 18.3 57.5l-48.7.1c-2.2-12-5.9-23.7-11.8-34.5-9.9-18-22.2-34.9-34.5-51.8-5.2-7.1-10.4-14.2-15.4-21.4C27.6 247.9 16 213.3 16 176 16 78.8 94.8 0 192 0s176 78.8 176 176c0 37.3-11.6 71.9-31.4 100.3-5 7.2-10.2 14.3-15.4 21.4-12.3 16.8-24.6 33.7-34.5 51.8-5.9 10.8-9.6 22.5-11.8 34.5h-48.6c2.6-18.7 7.9-38.6 18.3-57.5 11.5-20.9 26.9-42.1 39.8-59.8 4.7-6.4 9-12.4 12.7-17.7zM192 128c-26.5 0-48 21.5-48 48 0 8.8-7.2 16-16 16s-16-7.2-16-16c0-44.2 35.8-80 80-80 8.8 0 16 7.2 16 16s-7.2 16-16 16zm0 384c-44.2 0-80-35.8-80-80v-16h160v16c0 44.2-35.8 80-80 80z"/></symbol><symbol viewBox="0 0 448 512" id="lock" xmlns="http://www.w3.org/2000/svg"><path d="M144 144v48h160v-48c0-44.2-35.8-80-80-80s-80 35.8-80 80zm-64 48v-48C80 64.5 144.5 0 224 0s144 64.5 144 144v48h16c35.3 0 64 28.7 64 64v192c0 35.3-28.7 64-64 64H64c-35.3 0-64-28.7-64-64V256c0-35.3 28.7-64 64-64h16z"/></symbol><symbol viewBox="0 0 512 512" id="magnifying-glass-chart" xmlns="http://www.w3.org/2000/svg"><path d="M416 208c0 45.9-14.9 88.3-40 122.7l126.6 126.7c12.5 12.5 12.5 32.8 0 45.3s-32.8 12.5-45.3 0L330.7 376c-34.4 25.2-76.8 40-122.7 40C93.1 416 0 322.9 0 208S93.1 0 208 0s208 93.1 208 208zm-312 8v64c0 13.3 10.7 24 24 24s24-10.7 24-24v-64c0-13.3-10.7-24-24-24s-24 10.7-24 24zm80-96v160c0 13.3 10.7 24 24 24s24-10.7 24-24V120c0-13.3-10.7-24-24-24s-24 10.7-24 24zm80 64v96c0 13.3 10.7 24 24 24s24-10.7 24-24v-96c0-13.3-10.7-24-24-24s-24 10.7-24 24z"/></symbol><symbol viewBox="0 0 448 512" id="minus-primary" xmlns="http://www.w3.org/2000/svg"><path fill="#5753c6" d="M432 256c0 17.7-14.3 32-32 32H48c-17.7 0-32-14.3-32-32s14.3-32 32-32h352c17.7 0 32 14.3 32 32z"/></symbol><symbol viewBox="0 0 512 512" id="pen-to-square" xmlns="http://www.w3.org/2000/svg"><path d="M441 58.9 453.1 71c9.4 9.4 9.4 24.6 0 33.9L424 134.1 377.9 88 407 58.9c9.4-9.4 24.6-9.4 33.9 0zM209.8 256.2 344 121.9l46.1 46.1-134.3 134.2c-2.9 2.9-6.5 5-10.4 6.1L186.9 325l16.7-58.5c1.1-3.9 3.2-7.5 6.1-10.4zM373.1 25 175.8 222.2c-8.7 8.7-15 19.4-18.3 31.1l-28.6 100c-2.4 8.4-.1 17.4 6.1 23.6s15.2 8.5 23.6 6.1l100-28.6c11.8-3.4 22.5-9.7 31.1-18.3L487 138.9c28.1-28.1 28.1-73.7 0-101.8L474.9 25c-28.1-28.1-73.7-28.1-101.8 0zM88 64c-48.6 0-88 39.4-88 88v272c0 48.6 39.4 88 88 88h272c48.6 0 88-39.4 88-88V312c0-13.3-10.7-24-24-24s-24 10.7-24 24v112c0 22.1-17.9 40-40 40H88c-22.1 0-40-17.9-40-40V152c0-22.1 17.9-40 40-40h112c13.3 0 24-10.7 24-24s-10.7-24-24-24H88z"/></symbol><symbol viewBox="0 0 448 512" id="plus-primary" xmlns="http://www.w3.org/2000/svg"><path fill="#5753c6" d="M256 80c0-17.7-14.3-32-32-32s-32 14.3-32 32v144H48c-17.7 0-32 14.3-32 32s14.3 32 32 32h144v144c0 17.7 14.3 32 32 32s32-14.3 32-32V288h144c17.7 0 32-14.3 32-32s-14.3-32-32-32H256V80z"/></symbol><symbol viewBox="0 0 448 512" id="poll" xmlns="http://www.w3.org/2000/svg"><path d="M64 32C28.7 32 0 60.7 0 96v320c0 35.3 28.7 64 64 64h320c35.3 0 64-28.7 64-64V96c0-35.3-28.7-64-64-64H64zm64 192c17.7 0 32 14.3 32 32v96c0 17.7-14.3 32-32 32s-32-14.3-32-32v-96c0-17.7 14.3-32 32-32zm64-64c0-17.7 14.3-32 32-32s32 14.3 32 32v192c0 17.7-14.3 32-32 32s-32-14.3-32-32V160zm128 128c17.7 0 32 14.3 32 32v32c0 17.7-14.3 32-32 32s-32-14.3-32-32v-32c0-17.7 14.3-32 32-32z"/></symbol><symbol viewBox="0 0 640 640" id="print" xmlns="http://www.w3.org/2000/svg"><path d="M128 128c0-35.3 28.7-64 64-64h213.5c17 0 33.3 6.7 45.3 18.7l42.5 42.5c12 12 18.7 28.3 18.7 45.3V208H128v-80zM64 320c0-35.3 28.7-64 64-64h384c35.3 0 64 28.7 64 64v96c0 17.7-14.3 32-32 32h-32v64c0 35.3-28.7 64-64 64H192c-35.3 0-64-28.7-64-64v-64H96c-17.7 0-32-14.3-32-32v-96zm128 160v32h256v-96H192v64zm328-144c0-13.3-10.7-24-24-24s-24 10.7-24 24 10.7 24 24 24 24-10.7 24-24z"/></symbol><symbol viewBox="0 0 640 640" id="question" xmlns="http://www.w3.org/2000/svg"><path d="M224 224c0-53 43-96 96-96s96 43 96 96c0 42.7-27.9 78.9-66.5 91.4-28.4 9.2-61.5 35.3-61.5 76.6v24c0 17.7 14.3 32 32 32s32-14.3 32-32v-24c0-1.7.6-4.1 3.5-7.3 3-3.3 7.9-6.5 13.7-8.4C433.5 355.6 480 295.3 480 224c0-88.4-71.6-160-160-160s-160 71.6-160 160c0 17.7 14.3 32 32 32s32-14.3 32-32zm96 352c22.1 0 40-17.9 40-40s-17.9-40-40-40-40 17.9-40 40 17.9 40 40 40z"/></symbol><symbol viewBox="0 0 448 512" id="share" xmlns="http://www.w3.org/2000/svg"><path d="M352 224c53 0 96-43 96-96s-43-96-96-96-96 43-96 96c0 4 .2 8 .7 11.9l-94.1 47C145.4 170.2 121.9 160 96 160c-53 0-96 43-96 96s43 96 96 96c25.9 0 49.4-10.2 66.6-26.9l94.1 47c-.5 3.9-.7 7.8-.7 11.9 0 53 43 96 96 96s96-43 96-96-43-96-96-96c-25.9 0-49.4 10.2-66.6 26.9l-94.1-47c.5-3.9.7-7.8.7-11.9s-.2-8-.7-11.9l94.1-47c17.2 16.7 40.7 26.9 66.6 26.9z"/></symbol><symbol viewBox="0 0 448 512" id="square-check" xmlns="http://www.w3.org/2000/svg"><path d="M64 32C28.7 32 0 60.7 0 96v320c0 35.3 28.7 64 64 64h320c35.3 0 64-28.7 64-64V96c0-35.3-28.7-64-64-64H64zm273 177L209 337c-9.4 9.4-24.6 9.4-33.9 0l-64-64c-9.4-9.4-9.4-24.6 0-33.9s24.6-9.4 33.9 0l47 47L303 175c9.4-9.4 24.6-9.4 33.9 0s9.4 24.6 0 33.9z"/></symbol><symbol viewBox="0 0 448 512" id="square-minus" xmlns="http://www.w3.org/2000/svg"><path d="M64 32C28.7 32 0 60.7 0 96v320c0 35.3 28.7 64 64 64h320c35.3 0 64-28.7 64-64V96c0-35.3-28.7-64-64-64H64zm88 200h144c13.3 0 24 10.7 24 24s-10.7 24-24 24H152c-13.3 0-24-10.7-24-24s10.7-24 24-24z"/></symbol><symbol viewBox="0 0 448 512" id="square-xmark" xmlns="http://www.w3.org/2000/svg"><path d="M64 32C28.7 32 0 60.7 0 96v320c0 35.3 28.7 64 64 64h320c35.3 0 64-28.7 64-64V96c0-35.3-28.7-64-64-64H64zm79 143c9.4-9.4 24.6-9.4 33.9 0l47 47 47-47c9.4-9.4 24.6-9.4 33.9 0s9.4 24.6 0 33.9l-47 47 47 47c9.4 9.4 9.4 24.6 0 33.9s-24.6 9.4-33.9 0l-47-47-47 47c-9.4 9.4-24.6 9.4-33.9 0s-9.4-24.6 0-33.9l47-47-47-47c-9.4-9.4-9.4-24.6 0-33.9z"/></symbol><symbol viewBox="0 0 576 512" id="star" xmlns="http://www.w3.org/2000/svg"><path d="M316.9 18c-5.3-11-16.5-18-28.8-18s-23.4 7-28.8 18L195 150.3 51.4 171.5c-12 1.8-22 10.2-25.7 21.7s-.7 24.2 7.9 32.7L137.8 329l-24.6 145.7c-2 12 3 24.2 12.9 31.3s23 8 33.8 2.3l128.3-68.5 128.3 68.5c10.8 5.7 23.9 4.9 33.8-2.3s14.9-19.3 12.9-31.3L438.5 329l104.2-103.1c8.6-8.5 11.7-21.2 7.9-32.7s-13.7-19.9-25.7-21.7l-143.7-21.2L316.9 18z"/></symbol><symbol viewBox="0 0 512 512" id="table" xmlns="http://www.w3.org/2000/svg"><path d="M64 256v-96h160v96H64zm0 64h160v96H64v-96zm224 96v-96h160v96H288zm160-160H288v-96h160v96zM64 32C28.7 32 0 60.7 0 96v320c0 35.3 28.7 64 64 64h384c35.3 0 64-28.7 64-64V96c0-35.3-28.7-64-64-64H64z"/></symbol><symbol viewBox="0 0 640 640" id="thumbtack" xmlns="http://www.w3.org/2000/svg"><path d="M160 96c0-17.7 14.3-32 32-32h256c17.7 0 32 14.3 32 32s-14.3 32-32 32h-29.5l10.3 134.1c37.1 21.2 65.8 56.4 78.2 99.7l3.8 13.4c2.8 9.7.8 20-5.2 28.1-6 8.1-15.6 12.7-25.6 12.7H160c-10 0-19.5-4.7-25.5-12.7-6-8-8-18.4-5.2-28.1l3.7-13.4c12.4-43.3 41-78.5 78.2-99.7L221.5 128H192c-17.7 0-32-14.3-32-32zm128 368h64v112c0 17.7-14.3 32-32 32s-32-14.3-32-32V464z"/></symbol><symbol viewBox="0 0 640 640" id="thumbtack-slash" xmlns="http://www.w3.org/2000/svg"><path d="M73 39.1c-9.4-9.4-24.6-9.4-33.9 0-9.3 9.4-9.4 24.6-.1 34l528 528c9.4 9.4 24.6 9.4 33.9 0 9.3-9.4 9.4-24.6 0-33.9L449.8 416H480c10 0 19.5-4.7 25.5-12.7 6-8 8-18.4 5.2-28.1l-3.7-13.4c-12.4-43.3-41-78.5-78.2-99.7L418.5 128H448c17.7 0 32-14.3 32-32s-14.3-32-32-32H192c-7.4 0-14.1 2.5-19.5 6.6l49.6 49.7-4.8 63.1L73 39.1zM314.2 416 181.7 283.6C159 304.1 141.9 331 133 361.9l-3.8 13.4c-2.8 9.7-.8 20 5.2 28.1 6 8.1 15.6 12.6 25.6 12.6h154.2zM288 576c0 17.7 14.3 32 32 32s32-14.3 32-32V464h-64v112z"/></symbol><symbol viewBox="0 0 448 512" id="trash" xmlns="http://www.w3.org/2000/svg"><path d="m170.5 51.6-19 28.4h145l-19-28.4c-1.5-2.2-4-3.6-6.7-3.6h-93.7c-2.7 0-5.2 1.3-6.7 3.6zm147-26.6 36.7 55H424c13.3 0 24 10.7 24 24s-10.7 24-24 24h-8v304c0 44.2-35.8 80-80 80H112c-44.2 0-80-35.8-80-80V128h-8c-13.3 0-24-10.7-24-24s10.7-24 24-24h69.8l36.7-55.1C140.9 9.4 158.4 0 177.1 0h93.7c18.7 0 36.2 9.4 46.6 24.9zM80 128v304c0 17.7 14.3 32 32 32h224c17.7 0 32-14.3 32-32V128H80zm80 64v208c0 8.8-7.2 16-16 16s-16-7.2-16-16V192c0-8.8 7.2-16 16-16s16 7.2 16 16zm80 0v208c0 8.8-7.2 16-16 16s-16-7.2-16-16V192c0-8.8 7.2-16 16-16s16 7.2 16 16zm80 0v208c0 8.8-7.2 16-16 16s-16-7.2-16-16V192c0-8.8 7.2-16 16-16s16 7.2 16 16z"/></symbol><symbol viewBox="0 0 384 512" id="xmark" xmlns="http://www.w3.org/2000/svg"><path d="M342.6 150.6c12.5-12.5 12.5-32.8 0-45.3s-32.8-12.5-45.3 0L192 210.7 86.6 105.4c-12.5-12.5-32.8-12.5-45.3 0s-12.5 32.8 0 45.3L146.7 256 41.4 361.4c-12.5 12.5-12.5 32.8 0 45.3s32.8 12.5 45.3 0L192 301.3l105.4 105.3c12.5 12.5 32.8 12.5 45.3 0s12.5-32.8 0-45.3L237.3 256l105.3-105.4z"/></symbol></svg>